<?xml version="1.0" standalone="no"?>
<!DOCTYPE svg PUBLIC "-//W3C//DTD SVG 20010904//EN"
 "http://www.w3.org/TR/2001/REC-SVG-20010904/DTD/svg10.dtd">
<svg version="1.0" xmlns="http://www.w3.org/2000/svg"
 width="727.000000pt" height="142.000000pt" viewBox="0 0 727.000000 142.000000"
 preserveAspectRatio="xMidYMid meet">

<g transform="translate(0.000000,142.000000) scale(0.100000,-0.100000)"
fill="#000000" stroke="none">
<path d="M0 1111 l0 -308 118 28 c397 96 846 167 1262 201 197 15 755 15 925
0 72 -7 211 -21 310 -32 637 -69 1449 -79 2135 -24 631 50 1247 153 1830 305
159 42 422 119 440 130 9 5 -1493 9 -3502 9 l-3518 0 0 -309z"/>
<path d="M1525 973 c-429 -21 -1070 -122 -1487 -234 l-38 -10 0 -339 c0 -187
2 -340 5 -340 3 0 51 28 107 61 644 389 1548 671 2512 783 71 9 130 17 132 19
5 5 -408 47 -566 58 -116 8 -526 9 -665 2z"/>
<path d="M2084 590 c-59 -18 -91 -76 -72 -131 12 -34 47 -55 107 -65 84 -13
76 -64 -10 -64 -39 0 -50 -4 -60 -21 -16 -30 0 -41 63 -47 44 -3 59 0 88 20
45 31 59 77 38 122 -16 33 -39 46 -115 66 -23 6 -45 16 -49 22 -10 16 25 38
61 38 32 0 65 34 48 51 -14 14 -66 19 -99 9z"/>
<path d="M2317 583 c-4 -3 -7 -12 -7 -20 0 -9 16 -13 55 -13 48 0 55 2 55 20
0 17 -7 20 -48 20 -27 0 -52 -3 -55 -7z"/>
<path d="M2458 530 c-46 -63 -58 -72 -58 -40 0 16 -7 20 -32 20 l-33 0 3 -85
3 -85 30 0 c26 0 29 4 29 30 0 17 3 30 8 30 4 -1 27 -30 52 -65 42 -60 48 -65
83 -65 20 0 37 3 37 7 0 3 -25 39 -55 79 -30 40 -55 76 -55 79 0 3 23 34 50
69 28 35 50 69 50 75 0 6 -15 11 -34 11 -30 0 -39 -7 -78 -60z"/>
<path d="M2647 583 c-4 -3 -7 -12 -7 -20 0 -9 16 -13 55 -13 48 0 55 2 55 20
0 17 -7 20 -48 20 -27 0 -52 -3 -55 -7z"/>
<path d="M2820 555 c0 -22 4 -34 10 -30 6 3 10 17 10 30 0 13 -4 27 -10 30 -6
4 -10 -8 -10 -30z"/>
<path d="M2860 555 c0 -33 2 -35 34 -35 18 0 45 -9 59 -20 29 -23 87 -27 87
-6 0 25 -55 74 -96 85 -70 20 -84 16 -84 -24z"/>
<path d="M2206 536 c-17 -32 -16 -56 4 -56 13 0 52 68 45 80 -12 19 -30 10
-49 -24z"/>
<path d="M2662 428 l3 -83 33 -3 32 -3 0 85 0 86 -35 0 -36 0 3 -82z"/>
<path d="M2960 430 c0 -18 7 -20 55 -20 48 0 55 2 55 20 0 18 -7 20 -55 20
-48 0 -55 -2 -55 -20z"/>
<path d="M1993 351 c-22 -38 -21 -51 3 -51 20 0 55 62 42 77 -16 19 -21 16
-45 -26z"/>
<path d="M2941 350 c-13 -11 -36 -20 -52 -20 -26 0 -29 -4 -29 -30 0 -28 3
-30 35 -30 20 0 50 6 69 14 31 13 76 59 76 77 0 17 -75 8 -99 -11z"/>
<path d="M2820 300 c0 -16 5 -30 10 -30 6 0 10 14 10 30 0 17 -4 30 -10 30 -5
0 -10 -13 -10 -30z"/>
<path d="M2310 290 c0 -18 7 -20 55 -20 48 0 55 2 55 20 0 18 -7 20 -55 20
-48 0 -55 -2 -55 -20z"/>
<path d="M2640 290 c0 -18 7 -20 55 -20 48 0 55 2 55 20 0 18 -7 20 -55 20
-48 0 -55 -2 -55 -20z"/>
<path d="M4231 97 c-17 -17 -13 -27 14 -37 35 -13 33 -34 -2 -25 -21 5 -25 4
-17 -5 16 -16 48 -8 52 13 2 11 -6 20 -22 27 -33 12 -34 24 -1 18 29 -6 34 7
6 15 -11 2 -24 0 -30 -6z"/>
<path d="M3633 60 c0 -22 3 -40 8 -40 5 0 9 6 9 14 0 7 9 16 20 19 12 3 20 14
20 26 0 16 -6 21 -27 21 -26 0 -28 -3 -30 -40z m45 18 c-6 -18 -28 -21 -28 -4
0 9 7 16 16 16 9 0 14 -5 12 -12z"/>
<path d="M4403 60 c0 -25 2 -35 4 -22 2 12 2 32 0 45 -2 12 -4 2 -4 -23z"/>
<path d="M4528 89 c-6 -17 3 -69 11 -69 7 0 6 69 -2 76 -3 3 -7 0 -9 -7z"/>
<path d="M3727 73 c-11 -10 -8 -53 3 -53 6 0 10 11 10 24 0 13 6 27 13 29 8 4
6 6 -4 6 -9 1 -19 -2 -22 -6z"/>
<path d="M3784 65 c-9 -23 3 -45 26 -45 25 0 37 25 20 45 -16 19 -39 19 -46 0z
m42 -6 c10 -17 -13 -36 -27 -22 -12 12 -4 33 11 33 5 0 12 -5 16 -11z"/>
<path d="M3866 65 c-8 -23 4 -45 25 -45 10 0 19 4 19 10 0 5 -7 7 -15 4 -11
-4 -15 0 -15 16 0 16 4 20 15 16 8 -3 15 -1 15 4 0 16 -37 11 -44 -5z"/>
<path d="M3944 66 c-10 -25 3 -46 28 -45 22 2 22 2 2 6 -16 3 -20 9 -17 24 6
21 18 25 26 9 3 -6 4 -5 3 2 -4 19 -35 22 -42 4z"/>
<path d="M4027 73 c-12 -12 -7 -22 13 -28 11 -4 17 -11 14 -17 -4 -7 -2 -8 4
-4 19 11 14 24 -10 32 -22 7 -22 7 -3 15 14 5 16 8 4 8 -9 1 -19 -2 -22 -6z"/>
<path d="M4100 70 c0 -16 39 -50 45 -40 3 5 -5 14 -17 21 -22 12 -22 12 -3 20
19 7 19 8 -2 8 -13 1 -23 -3 -23 -9z"/>
<path d="M4314 65 c-9 -23 3 -45 25 -45 25 0 34 14 26 40 -7 23 -43 27 -51 5z
m42 -6 c10 -17 -13 -36 -27 -22 -12 12 -4 33 11 33 5 0 12 -5 16 -11z"/>
<path d="M4444 50 c1 -18 7 -26 24 -28 19 -3 22 1 21 30 -2 30 -2 31 -6 6 -5
-34 -30 -37 -36 -5 -3 19 -4 19 -3 -3z"/>
<path d="M4582 50 c0 -19 2 -27 5 -17 2 9 2 25 0 35 -3 9 -5 1 -5 -18z"/>
<path d="M4624 65 c-9 -23 3 -45 25 -45 23 0 35 28 20 46 -15 18 -38 18 -45
-1z m36 -15 c0 -11 -7 -20 -15 -20 -15 0 -21 21 -8 33 12 13 23 7 23 -13z"/>
<path d="M4711 48 c2 -31 2 -31 6 -5 5 33 24 31 35 -4 6 -22 7 -21 5 6 -2 23
-7 31 -24 33 -20 3 -23 -1 -22 -30z"/>
<path d="M4790 70 c0 -16 39 -50 45 -40 3 5 -5 14 -17 21 -22 12 -22 12 -3 20
19 7 19 8 -2 8 -13 1 -23 -3 -23 -9z"/>
</g>
</svg>
